<?xml version="1.0" encoding="utf-8"?>
<!-- Generator: Adobe Illustrator 22.1.0, SVG Export Plug-In . SVG Version: 6.00 Build 0)  -->
<svg version="1.1" id="Layer_1" xmlns="http://www.w3.org/2000/svg" xmlns:xlink="http://www.w3.org/1999/xlink" x="0px" y="0px"
	 viewBox="0 0 432 126" style="enable-background:new 0 0 432 126;" xml:space="preserve">
<style type="text/css">
	.st0{fill:#273980;}
	.st1{fill:#005AC3;}
</style>
<path class="st0" d="M188.1,32.7c0,3.9-1.3,7.4-3.9,10.6c-2.6,3.2-6.2,4.7-10.9,4.7c-1.2,0-2.3-0.1-3.3-0.3s-3-0.8-6.1-1.9
	c-1.6-0.5-3-0.7-4-0.7c-1.6,0-4.3,1-8,3.1v36.3c0,3.1,0.2,5.1,0.7,6s1.2,1.6,2.3,2s3.3,0.6,6.9,0.6h4.1V111h-58.1V93.2h5.5
	c3.4,0,5.6-0.2,6.4-0.6s1.5-1,1.9-1.9s0.7-3,0.7-6.2V41.9h-11.5v-18c9.4-0.8,19.2-3.4,29.3-7.6h8.7v13.4c5-5.2,9.3-8.7,12.9-10.6
	c3.6-1.9,7.1-2.8,10.5-2.8c3,0,5.8,0.7,8.2,2.1s4.3,3.4,5.7,6C187.4,27,188.1,29.7,188.1,32.7 M83.8,87.1c-4.4,2.3-8.8,3.5-13.1,3.5
	c-4.5,0-8.7-1.2-12.4-3.5c-3.8-2.3-6.7-5.8-9-10.3c-2.2-4.5-3.3-9.7-3.3-15.4c0-5.2,0.9-9.9,2.8-14.1c1.9-4.2,4.3-7.3,7.3-9.4
	c2.9-2.1,6-3.1,9.3-3.1c2,0,3.8,0.4,5.3,1.1c1.5,0.7,2.9,1.7,4,3s2.7,4,4.7,8c1.6,3.2,2.7,5.1,3.3,5.8c1.2,1.4,2.8,2.6,4.6,3.5
	c1.9,0.9,4,1.4,6.3,1.4c2.9,0,5.7-0.7,8.3-2c2.6-1.4,4.5-3.1,5.8-5.3s1.9-4.7,1.9-7.5c0-6.6-4-12.8-12.1-18.7S79,15.2,66.2,15.2
	c-10.7,0-19.9,2.1-27.8,6.3c-7.8,4.2-14,10.1-18.5,17.6s-6.7,15.9-6.7,25c0,13.4,4.8,24.8,14.5,34.1c9.6,9.3,21.6,14,36,14
	c9,0,17.4-2,25.3-6s15.5-10.4,22.8-19.3L98,74.9C92.9,80.7,88.2,84.8,83.8,87.1z"/>
<path class="st1" d="M204,90.9c-1.3-1.1-3.6-1.2-6.3,0.2c-0.8,0.4-1.5,1-2.2,1.6V90h-2.3l-0.2,0.1c-0.9,0.5-1.7,0.9-2.4,1.1
	s-1.5,0.4-2.3,0.4l-0.2,0.1v2.9h2.9v10.8c0,1.1-0.1,1.5-0.2,1.6c-0.1,0.2-0.3,0.4-0.5,0.5c0,0-0.2,0.1-1.2,0.1H188v3h10.4v-3h-0.9
	c-0.8,0-1.2-0.1-1.3-0.1c-0.2-0.1-0.3-0.1-0.4-0.3c-0.1-0.1-0.2-0.3-0.3-0.4c0-0.1-0.1-0.4-0.1-1.4v-8.7c0.5-0.6,1.2-1.2,2-1.8
	c0.6-0.5,1.2-0.7,1.7-0.7c0.2,0,0.7,0.1,1.4,0.6c0.4,0.3,0.6,0.4,0.9,0.5c0.2,0.1,0.5,0.1,0.8,0.1c0.7,0,1.3-0.2,1.8-0.7
	s0.8-1.1,0.8-1.7C205.1,92.2,204.7,91.4,204,90.9"/>
<path class="st1" d="M222,104.4c-1.3,1.3-2.4,2.2-3.2,2.6s-1.7,0.6-2.6,0.6c-1.1,0-2-0.3-2.8-0.8s-1.5-1.4-2-2.5
	c-0.5-1.2-0.8-2.6-0.8-4.1c0-0.2,0-0.4,0-0.7h13.7v-0.7c0-1.1-0.1-2-0.3-2.7c-0.3-1.2-0.9-2.3-1.7-3.2c-0.8-1-1.7-1.7-2.8-2.2
	s-2.4-0.7-3.8-0.7c-2,0-3.7,0.5-5.2,1.3c-1.5,0.9-2.7,2.1-3.5,3.7c-0.8,1.5-1.3,3.4-1.3,5.6c0,2.1,0.4,3.9,1.3,5.4
	c0.9,1.5,2.1,2.8,3.7,3.8c1.4,0.8,3.2,1.3,5.2,1.3c1.1,0,2.1-0.1,3-0.4c0.8-0.3,1.7-0.8,2.7-1.5c0.9-0.7,1.9-1.6,2.8-2.8l0.4-0.5
	l-2.2-1.8L222,104.4 M213.5,93.7c1.2-0.6,2.8-0.6,3.9,0c0.5,0.3,0.9,0.6,1.2,1.1c0.2,0.4,0.4,0.9,0.6,1.6h-8
	c0.2-0.6,0.5-1.1,0.8-1.5C212.4,94.4,212.9,94,213.5,93.7z"/>
<path class="st1" d="M237.1,93.5h1.1c0.8,0,1,0.1,1,0.2c0.1,0.1,0.1,0.1,0.1,0.2s0,0.5-0.4,1.3l-3.6,9.5l-3.8-9.5
	c-0.3-0.9-0.4-1.2-0.4-1.3c0-0.1,0-0.2,0.1-0.2c0-0.1,0.1-0.1,0.2-0.1c0,0,0.3-0.1,1.2-0.1h0.8v-3h-9.3v3h0.2c0.4,0,0.7,0.1,0.9,0.2
	s0.4,0.2,0.6,0.4c0.3,0.3,0.5,0.8,0.8,1.3l6.4,15.2h3.2l6.3-14.9c0.5-1.2,0.7-1.5,0.8-1.6c0.1-0.2,0.3-0.3,0.6-0.4s0.6-0.2,1.1-0.2
	h0.2v-3h-8.1L237.1,93.5"/>
<path class="st1" d="M254.8,107.5c-0.1-0.1-0.2-0.2-0.3-0.3c-0.1-0.1-0.1-0.3-0.1-0.9V90h-2.2l-0.2,0.1c-0.9,0.5-1.7,0.8-2.4,1
	s-1.5,0.4-2.6,0.5l-0.1,0.1v2.9h2.9v10.8c0,1.4-0.1,1.7-0.1,1.7c-0.1,0.1-0.2,0.2-0.3,0.3c0,0-0.3,0.2-1.4,0.2h-1v3h10.3v-3H256
	C255.2,107.6,254.9,107.5,254.8,107.5"/>
<path class="st1" d="M250.2,83.6c-0.5,0.5-0.8,1.1-0.8,1.8c0,0.7,0.3,1.3,0.8,1.8s1.1,0.8,1.8,0.8s1.3-0.3,1.8-0.8s0.8-1.1,0.8-1.8
	c0-0.7-0.3-1.3-0.8-1.8s-1.1-0.8-1.8-0.8C251.3,82.8,250.7,83.1,250.2,83.6"/>
<path class="st1" d="M274,104.4c-1.3,1.3-2.4,2.2-3.2,2.6c-0.8,0.4-1.7,0.6-2.6,0.6c-1.1,0-2-0.3-2.8-0.8s-1.5-1.4-2-2.5
	c-0.5-1.2-0.8-2.6-0.8-4.1c0-0.2,0-0.4,0-0.7h13.7v-0.7c0-1.1-0.1-2-0.3-2.7c-0.3-1.2-0.9-2.3-1.7-3.2c-0.8-1-1.7-1.7-2.8-2.2
	c-1.1-0.5-2.4-0.7-3.8-0.7c-2,0-3.7,0.5-5.2,1.3c-1.5,0.9-2.7,2.1-3.5,3.7c-0.8,1.5-1.3,3.4-1.3,5.6c0,2.1,0.4,3.9,1.3,5.4
	s2.1,2.8,3.7,3.8c1.4,0.8,3.2,1.3,5.2,1.3c1.1,0,2.1-0.1,3-0.4c0.8-0.3,1.7-0.8,2.7-1.5c0.9-0.7,1.9-1.6,2.8-2.8l0.4-0.5l-2.2-1.8
	L274,104.4 M265.5,93.7c1.2-0.6,2.8-0.6,3.9,0c0.5,0.3,0.9,0.6,1.2,1.1c0.2,0.4,0.4,0.9,0.6,1.6h-8c0.2-0.6,0.5-1.1,0.8-1.5
	C264.4,94.4,264.9,94,265.5,93.7z"/>
<path class="st1" d="M299.8,93.5h0.9c0.9,0,1.1,0.2,1.2,0.2c0.1,0.1,0.2,0.2,0.2,0.3c0,0.1,0,0.2,0,0.3c0,0.1-0.1,0.4-0.3,0.9
	l-3.3,9.1l-3.3-8.9c-0.3-0.8-0.4-1.2-0.4-1.4c0-0.2,0.1-0.3,0.2-0.4c0,0,0.2-0.1,1-0.1h1v-3h-9.3v3h0.2c0.7,0,1,0.2,1.2,0.3
	c0.4,0.3,0.8,1,1.2,1.9l0.3,0.7l-3.1,8l-3.4-9c-0.3-0.9-0.4-1.4-0.4-1.5s0-0.1,0.2-0.2c0,0,0.3-0.1,1.2-0.1h0.8v-3h-9.3v3h0.2
	c0.4,0,0.7,0.1,1,0.2c0.2,0.1,0.5,0.3,0.6,0.5c0.1,0.1,0.4,0.5,0.8,1.7l5.9,14.8h3.2l3.9-10l4,10h3.2l5.8-14.8
	c0.5-1.2,0.7-1.5,0.8-1.7c0.1-0.2,0.3-0.3,0.6-0.5c0.3-0.1,0.6-0.2,1.1-0.2h0.2v-3H300v2.9"/>
<path class="st1" d="M190.9,75.3c-1.9-2-2.9-4.5-2.9-7.5c0-2,0.5-3.8,1.3-5.4c0.9-1.6,2.2-2.9,3.8-3.8c1.6-0.9,3.4-1.3,5.5-1.3
	c2.3,0,4.3,0.6,5.9,1.8c1.7,1.2,2.5,2.5,2.5,3.9c0,0.8-0.2,1.4-0.7,1.9c-0.7,0.7-1.7,0.9-2.6,0.4c-0.3-0.2-0.6-0.4-0.9-0.7
	c-0.1-0.1-0.3-0.4-0.7-1.3c-0.4-0.9-0.6-1.2-0.7-1.4c-0.3-0.4-0.7-0.8-1.2-1s-1-0.4-1.6-0.4c-1,0-1.8,0.3-2.7,0.8
	c-0.8,0.5-1.5,1.3-2,2.4c-0.5,1.1-0.8,2.4-0.8,4c0,2.4,0.6,4.3,1.8,5.6c1,1.2,2.2,1.7,3.7,1.7c0.7,0,1.4-0.1,2.1-0.3
	c0.7-0.2,1.4-0.6,2-1c0.3-0.2,1-0.8,2.3-2.3l0.4-0.5l2.2,1.8l-0.4,0.5c-2.5,3.4-5.6,5.2-9.2,5.2C195.3,78.4,192.9,77.3,190.9,75.3
	 M210.6,75.2c-1.7-2.1-2.5-4.5-2.5-7.3c0-2,0.4-3.9,1.3-5.5c0.9-1.6,2.1-2.9,3.7-3.7c1.6-0.9,3.3-1.3,5.3-1.3s3.8,0.4,5.2,1.3
	c1.5,0.9,2.7,2.1,3.5,3.7c0.8,1.6,1.3,3.5,1.3,5.5s-0.4,3.9-1.3,5.5c-0.9,1.6-2.1,2.9-3.6,3.7c-1.5,0.9-3.3,1.3-5.4,1.3
	C214.9,78.4,212.3,77.3,210.6,75.2z M213.3,68c0,2.5,0.5,4.4,1.5,5.7c0.9,1.1,2,1.6,3.5,1.6c1,0,1.8-0.2,2.5-0.8
	c0.7-0.5,1.4-1.3,1.8-2.5c0.5-1.2,0.7-2.6,0.7-4.2s-0.3-3-0.8-4.3c-0.4-1-1-1.7-1.7-2.2c-0.8-0.5-1.6-0.8-2.6-0.8
	c-1.3,0-2.3,0.5-3.2,1.5C213.9,63.4,213.3,65.4,213.3,68z M238.9,74.9h-0.8c-1.2,0-1.5-0.1-1.5-0.1c-0.2-0.1-0.3-0.2-0.4-0.4
	c0-0.1-0.2-0.5-0.2-1.7V64c1-0.9,2-1.6,3-2.1c1.9-0.9,3.8-1,4.9-0.3c0.5,0.3,0.8,0.6,0.9,1.1c0.1,0.3,0.3,1.1,0.3,2.8v7.2
	c0,1.3-0.1,1.6-0.2,1.7c-0.1,0.2-0.2,0.3-0.4,0.4c-0.1,0.1-0.5,0.2-1.6,0.2h-0.8v3h10.3v-3h-0.2c-1.6,0-2-0.1-2.1-0.1
	c-0.2-0.1-0.3-0.2-0.4-0.3c0,0-0.1-0.3-0.1-1.7v-8.6c0-1-0.1-1.8-0.2-2.3c-0.2-0.9-0.6-1.7-1.2-2.4c-0.6-0.7-1.3-1.2-2.2-1.6
	c-1.9-0.8-4.6-0.8-7,0.2c-1,0.4-2.1,1.1-3.4,2.1v-2.9h-2.2l-0.2,0.1c-1,0.6-1.8,0.9-2.3,1.1c-0.5,0.2-1.3,0.3-2.4,0.4l-0.2,0.1V62
	h2.8v10.4c0,1.5-0.1,1.9-0.1,1.9c-0.1,0.3-0.3,0.4-0.4,0.5c-0.1,0.1-0.5,0.2-1.7,0.2h-0.7v3h10.4v-3.1H238.9z M274,73.3
	c-0.9-1.5-1.3-3.4-1.3-5.4c0-2.2,0.4-4,1.3-5.6c0.8-1.6,2-2.8,3.5-3.7s3.3-1.3,5.2-1.3c1.5,0,2.8,0.2,3.8,0.7
	c1.1,0.5,2.1,1.2,2.8,2.2c0.8,0.9,1.3,2,1.7,3.2c0.2,0.7,0.3,1.6,0.3,2.7v0.7h-13.7c0,0.3,0,0.6,0,0.7c0,1.5,0.3,2.9,0.8,4.1
	s1.2,2,2,2.5s1.7,0.8,2.8,0.8c0.9,0,1.8-0.2,2.6-0.6c0.9-0.4,1.9-1.3,3.2-2.6l0.4-0.4l2.2,1.8l-0.4,0.5c-1,1.2-1.9,2.1-2.8,2.8
	c-0.9,0.7-1.8,1.2-2.7,1.5c-0.8,0.3-1.8,0.4-3,0.4c-2,0-3.7-0.4-5.2-1.3C276.1,76.1,274.9,74.9,274,73.3z M279.2,62.2
	c-0.3,0.4-0.6,0.9-0.8,1.5h8c-0.2-0.7-0.3-1.2-0.6-1.6c-0.3-0.5-0.7-0.8-1.2-1.1c-1.1-0.6-2.6-0.6-3.9,0
	C280.1,61.2,279.6,61.7,279.2,62.2z M308.5,58.1c-1.3-1.1-3.6-1.2-6.3,0.2c-0.8,0.4-1.5,1-2.2,1.6v-2.6h-2.3l-0.2,0.1
	c-0.9,0.5-1.7,0.9-2.4,1.1c-0.7,0.2-1.5,0.4-2.3,0.4l-0.2,0.1v2.9h2.9v10.8c0,1.1-0.1,1.5-0.2,1.6c-0.1,0.2-0.3,0.4-0.5,0.5
	c0,0-0.2,0.1-1.2,0.1h-1.1v3h10.4v-3H302c-0.8,0-1.2-0.1-1.3-0.1c-0.2-0.1-0.3-0.1-0.4-0.3c-0.1-0.1-0.2-0.3-0.3-0.4
	c0-0.1-0.1-0.4-0.1-1.4V64c0.5-0.6,1.2-1.2,2-1.8c0.6-0.5,1.2-0.7,1.7-0.7c0.2,0,0.7,0.1,1.4,0.6c0.4,0.3,0.6,0.4,0.9,0.5
	c0.2,0.1,0.5,0.1,0.8,0.1c0.7,0,1.3-0.2,1.8-0.7s0.8-1.1,0.8-1.7C309.6,59.5,309.2,58.7,308.5,58.1z M332.2,60.8v-3h-8.1v3h1.1
	c0.8,0,1,0.1,1,0.2c0.1,0.1,0.1,0.1,0.1,0.2c0,0.1,0,0.5-0.4,1.3l-3.6,9.5l-3.8-9.5c-0.3-0.9-0.4-1.2-0.4-1.3s0-0.2,0.1-0.2
	c0-0.1,0.1-0.1,0.2-0.1c0,0,0.3-0.1,1.2-0.1h0.8v-3h-9.3v3h0.2c0.4,0,0.7,0.1,0.9,0.2c0.2,0.1,0.4,0.2,0.6,0.4
	c0.3,0.3,0.5,0.8,0.8,1.3l6.4,15.2h3.2l6.3-14.9c0.5-1.2,0.7-1.5,0.8-1.6c0.1-0.2,0.3-0.3,0.6-0.4c0.3-0.1,0.6-0.2,1.1-0.2H332.2z
	 M363.1,75c-0.4,0-0.7-0.1-1-0.3c-0.3-0.2-0.5-0.4-0.6-0.7c-0.1-0.2-0.2-0.8-0.2-1.9v-11h5.7v-3.3h-5.7v-6.6h-2.6l-0.1,0.6
	c-0.2,1.6-0.6,2.8-0.9,3.6c-0.4,0.7-0.8,1.3-1.4,1.8s-1.4,0.8-2.4,1l-0.5,0.1v2.9h3.4v11.3c0,1.6,0.2,2.7,0.5,3.4
	c0.4,0.7,1,1.3,1.9,1.8s1.9,0.7,3,0.7c1.9,0,3.7-0.6,5.5-1.8l0.3-0.2v-3.6l-1.1,0.8C365.4,74.5,364.2,75,363.1,75z M377.6,74.8
	c-0.1-0.1-0.2-0.2-0.3-0.3c-0.1-0.1-0.1-0.3-0.1-0.9V57.3h-2.3l-0.1,0.1c-0.9,0.5-1.7,0.8-2.4,1c-0.7,0.2-1.5,0.4-2.6,0.5l-0.1,0.1
	v2.9h2.9v10.8c0,1.4-0.1,1.7-0.1,1.7c-0.1,0.1-0.2,0.2-0.3,0.3c0,0-0.3,0.2-1.4,0.2h-1v3h10.3v-3H379
	C377.9,74.9,377.6,74.8,377.6,74.8z M374.8,55.3c0.7,0,1.3-0.3,1.8-0.8s0.8-1.1,0.8-1.8s-0.3-1.3-0.8-1.8s-1.1-0.8-1.8-0.8
	c-0.7,0-1.3,0.3-1.8,0.8s-0.8,1.1-0.8,1.8s0.3,1.3,0.8,1.8C373.4,55,374,55.3,374.8,55.3z M400.5,60.8v-3h-8.1v3h1.1
	c0.8,0,1,0.1,1,0.2c0.1,0.1,0.1,0.1,0.1,0.2c0,0.1,0,0.5-0.4,1.3l-3.6,9.5l-3.8-9.5c-0.3-0.9-0.4-1.2-0.4-1.3s0-0.2,0.1-0.2
	c0-0.1,0.1-0.1,0.2-0.1c0,0,0.3-0.1,1.2-0.1h0.8v-3h-9.3v3h0.2c0.4,0,0.7,0.1,0.9,0.2c0.2,0.1,0.4,0.2,0.6,0.4
	c0.3,0.3,0.5,0.8,0.8,1.3l6.4,15.2h3.2l6.3-14.9c0.5-1.2,0.7-1.5,0.8-1.6c0.1-0.2,0.3-0.3,0.6-0.4c0.3-0.1,0.6-0.2,1.1-0.2H400.5z
	 M418.9,73.1l-0.4,0.5c-1,1.2-1.9,2.1-2.8,2.8c-0.9,0.7-1.8,1.2-2.7,1.5c-0.8,0.3-1.8,0.4-3,0.4c-2,0-3.7-0.4-5.2-1.3
	c-1.6-1-2.9-2.2-3.7-3.8c-0.9-1.5-1.3-3.4-1.3-5.4c0-2.2,0.4-4,1.3-5.6c0.8-1.6,2-2.8,3.5-3.7s3.3-1.3,5.2-1.3
	c1.5,0,2.8,0.2,3.8,0.7c1.1,0.5,2.1,1.2,2.8,2.2c0.8,0.9,1.3,2,1.7,3.2c0.2,0.7,0.3,1.6,0.3,2.7v0.7h-13.7c0,0.3,0,0.6,0,0.7
	c0,1.5,0.3,2.9,0.8,4.1s1.2,2,2,2.5s1.7,0.8,2.8,0.8c0.9,0,1.8-0.2,2.6-0.6c0.9-0.4,1.9-1.3,3.2-2.6l0.4-0.4L418.9,73.1z
	 M406.3,62.2c-0.3,0.4-0.6,0.9-0.8,1.5h8c-0.2-0.7-0.3-1.2-0.6-1.6c-0.3-0.5-0.7-0.8-1.2-1.1c-1.1-0.6-2.6-0.6-3.9,0
	C407.2,61.2,406.7,61.7,406.3,62.2z M354.4,77.7L354.4,77.7c-1.1,0.3-2.2,0.5-3.1,0.5c-1,0-1.9-0.2-2.6-0.4
	c-0.7-0.3-1.3-0.8-1.8-1.3c-0.3-0.3-0.5-0.7-0.6-1.1c-1.3,0.9-2.5,1.6-3.6,2.1c-1.3,0.5-2.7,0.8-4,0.8c-1.9,0-3.5-0.5-4.8-1.6
	s-1.9-2.4-1.9-3.9c0-0.9,0.2-1.8,0.7-2.6c0.5-0.8,1.2-1.5,2.1-2.1s2.2-1.1,4.1-1.5c1.7-0.4,4-0.8,6.9-1.1V64c0-1.2-0.3-2.1-0.9-2.5
	c-0.7-0.5-1.7-0.8-3-0.8c-0.6,0-1.2,0.1-1.7,0.2c-0.4,0.1-0.8,0.3-1,0.6c-0.3,0.2-0.4,0.5-0.6,0.8c0,0.1-0.1,0.3-0.4,1.6
	c-0.5,1.9-1.6,2.3-2.4,2.3c-0.7,0-1.3-0.3-1.7-0.7c-0.4-0.5-0.7-1.1-0.7-1.9c0-1,0.4-2,1.1-2.9s1.8-1.7,3.2-2.3
	c1.4-0.6,3-0.9,4.8-0.9c1.7,0,3.2,0.3,4.5,0.8c1.3,0.6,2.3,1.4,2.9,2.5c0.4,0.8,0.7,2.1,0.7,4V72c0,1.3,0.1,1.8,0.1,1.9
	c0.1,0.4,0.3,0.7,0.5,0.8c0.5,0.4,1.5,0.3,2.9-0.1l0.4-0.1v3.2H354.4z M345.9,72v-3.6c-2.5,0.4-4.1,0.6-4.7,0.8
	c-1.3,0.3-2.3,0.6-2.8,1c-0.5,0.3-0.9,0.7-1.1,1s-0.3,0.7-0.3,1.1s0.1,0.7,0.3,1.1c0.2,0.4,0.5,0.7,1,0.9c1.1,0.6,2.4,0.4,4-0.2
	C343.2,73.7,344.4,73,345.9,72z M269.9,68.6c-0.9-1-2.4-1.8-4.6-2.6l-3.7-1.3c-1.9-0.7-2.5-1.1-2.7-1.4c-0.3-0.3-0.5-0.6-0.5-1
	s0.2-0.8,0.7-1.1c0.5-0.4,1.2-0.6,2-0.6c1.1,0,2.3,0.4,3.4,1.2s2.1,2,2.7,3.5l0.1,0.2l3-1l-2-6.7H266l-0.4,0.8
	c-0.6-0.4-1.2-0.7-1.8-0.9c-0.8-0.3-1.8-0.4-2.8-0.4c-2,0-3.7,0.6-5.1,1.7c-1.4,1.1-2.1,2.5-2.1,4c0,1.2,0.4,2.4,1.3,3.3
	c0.8,0.9,2.2,1.7,4.3,2.5l4.5,1.6c1.5,0.5,2.1,1,2.4,1.2c0.3,0.4,0.5,0.8,0.5,1.2c0,0.5-0.3,1-0.8,1.5c-0.6,0.5-1.4,0.7-2.3,0.7
	c-1.5,0-3-0.5-4.3-1.5c-0.9-0.7-2-1.9-3.1-3.6l-3,1.2l2.6,6.8h2.3l0.3-1c1.5,1,3.2,1.4,5.2,1.4c1.5,0,2.8-0.3,4-0.8
	c1.2-0.6,2.1-1.4,2.7-2.3c0.6-1,1-2,1-3.1C271.2,70.8,270.7,69.6,269.9,68.6z"/>
<g>
	<path class="st1" d="M314.7,97.4c-1.9,0-3.5-1.6-3.5-3.5s1.6-3.5,3.5-3.5s3.5,1.6,3.5,3.5C318.3,95.9,316.7,97.4,314.7,97.4z
		 M311.5,93.9c0,1.8,1.5,3.3,3.3,3.3s3.3-1.5,3.3-3.3s-1.5-3.3-3.3-3.3C312.9,90.7,311.5,92.1,311.5,93.9z M313.4,92
		c0.3,0,0.7-0.1,1.2-0.1c1.5,0,1.7,0.7,1.7,1.1c0,0.5-0.4,0.9-0.8,1l0,0c0.3,0.1,0.5,0.3,0.6,0.7c0.1,0.4,0.3,0.9,0.4,1.1h-0.8
		c-0.1-0.1-0.1-0.3-0.3-0.9c-0.1-0.5-0.3-0.6-0.7-0.6h-0.4v1.6h-0.8V92H313.4z M314.1,93.7h0.5c0.5,0,0.8-0.2,0.8-0.6
		s-0.3-0.6-0.8-0.6c-0.3,0-0.4,0-0.5,0V93.7z"/>
</g>
</svg>
