<svg id="Layer_1" xmlns="http://www.w3.org/2000/svg" viewBox="0 0 432 126"><style>.st0{fill:#273980}.st1{fill:#005ac3}</style><path class="st0" d="M188.1 32.7c0 3.9-1.3 7.4-3.9 10.6-2.6 3.2-6.2 4.7-10.9 4.7-1.2 0-2.3-.1-3.3-.3s-3-.8-6.1-1.9c-1.6-.5-3-.7-4-.7-1.6 0-4.3 1-8 3.1v36.3c0 3.1.2 5.1.7 6s1.2 1.6 2.3 2 3.3.6 6.9.6h4.1V111h-58.1V93.2h5.5c3.4 0 5.6-.2 6.4-.6s1.5-1 1.9-1.9.7-3 .7-6.2V41.9h-11.5v-18c9.4-.8 19.2-3.4 29.3-7.6h8.7v13.4c5-5.2 9.3-8.7 12.9-10.6 3.6-1.9 7.1-2.8 10.5-2.8 3 0 5.8.7 8.2 2.1s4.3 3.4 5.7 6c1.3 2.6 2 5.3 2 8.3M83.8 87.1c-4.4 2.3-8.8 3.5-13.1 3.5-4.5 0-8.7-1.2-12.4-3.5-3.8-2.3-6.7-5.8-9-10.3-2.2-4.5-3.3-9.7-3.3-15.4 0-5.2.9-9.9 2.8-14.1 1.9-4.2 4.3-7.3 7.3-9.4 2.9-2.1 6-3.1 9.3-3.1 2 0 3.8.4 5.3 1.1 1.5.7 2.9 1.7 4 3s2.7 4 4.7 8c1.6 3.2 2.7 5.1 3.3 5.8 1.2 1.4 2.8 2.6 4.6 3.5 1.9.9 4 1.4 6.3 1.4 2.9 0 5.7-.7 8.3-2 2.6-1.4 4.5-3.1 5.8-5.3s1.9-4.7 1.9-7.5c0-6.6-4-12.8-12.1-18.7S79 15.2 66.2 15.2c-10.7 0-19.9 2.1-27.8 6.3-7.8 4.2-14 10.1-18.5 17.6s-6.7 15.9-6.7 25c0 13.4 4.8 24.8 14.5 34.1 9.6 9.3 21.6 14 36 14 9 0 17.4-2 25.3-6s15.5-10.4 22.8-19.3L98 74.9c-5.1 5.8-9.8 9.9-14.2 12.2z"/><path class="st1" d="M204 90.9c-1.3-1.1-3.6-1.2-6.3.2-.8.4-1.5 1-2.2 1.6V90h-2.3l-.2.1c-.9.5-1.7.9-2.4 1.1s-1.5.4-2.3.4l-.2.1v2.9h2.9v10.8c0 1.1-.1 1.5-.2 1.6-.1.2-.3.4-.5.5 0 0-.2.1-1.2.1H188v3h10.4v-3h-.9c-.8 0-1.2-.1-1.3-.1-.2-.1-.3-.1-.4-.3-.1-.1-.2-.3-.3-.4 0-.1-.1-.4-.1-1.4v-8.7c.5-.6 1.2-1.2 2-1.8.6-.5 1.2-.7 1.7-.7.2 0 .7.1 1.4.6.4.3.6.4.9.5.2.1.5.1.8.1.7 0 1.3-.2 1.8-.7s.8-1.1.8-1.7c.3-.8-.1-1.6-.8-2.1m18 13.5c-1.3 1.3-2.4 2.2-3.2 2.6s-1.7.6-2.6.6c-1.1 0-2-.3-2.8-.8s-1.5-1.4-2-2.5c-.5-1.2-.8-2.6-.8-4.1v-.7h13.7v-.7c0-1.1-.1-2-.3-2.7-.3-1.2-.9-2.3-1.7-3.2-.8-1-1.7-1.7-2.8-2.2s-2.4-.7-3.8-.7c-2 0-3.7.5-5.2 1.3-1.5.9-2.7 2.1-3.5 3.7-.8 1.5-1.3 3.4-1.3 5.6 0 2.1.4 3.9 1.3 5.4.9 1.5 2.1 2.8 3.7 3.8 1.4.8 3.2 1.3 5.2 1.3 1.1 0 2.1-.1 3-.4.8-.3 1.7-.8 2.7-1.5.9-.7 1.9-1.6 2.8-2.8l.4-.5-2.2-1.8-.6.3m-8.5-10.7c1.2-.6 2.8-.6 3.9 0 .5.3.9.6 1.2 1.1.2.4.4.9.6 1.6h-8c.2-.6.5-1.1.8-1.5.4-.5.9-.9 1.5-1.2zm23.6-.2h1.1c.8 0 1 .1 1 .2.1.1.1.1.1.2s0 .5-.4 1.3l-3.6 9.5-3.8-9.5c-.3-.9-.4-1.2-.4-1.3 0-.1 0-.2.1-.2 0-.1.1-.1.2-.1 0 0 .3-.1 1.2-.1h.8v-3h-9.3v3h.2c.4 0 .7.1.9.2s.4.2.6.4c.3.3.5.8.8 1.3l6.4 15.2h3.2l6.3-14.9c.5-1.2.7-1.5.8-1.6.1-.2.3-.3.6-.4s.6-.2 1.1-.2h.2v-3h-8.1v3m17.7 14l-.3-.3c-.1-.1-.1-.3-.1-.9V90h-2.2l-.2.1c-.9.5-1.7.8-2.4 1s-1.5.4-2.6.5l-.1.1v2.9h2.9v10.8c0 1.4-.1 1.7-.1 1.7l-.3.3s-.3.2-1.4.2h-1v3h10.3v-3H256c-.8 0-1.1-.1-1.2-.1m-4.6-23.9c-.5.5-.8 1.1-.8 1.8s.3 1.3.8 1.8 1.1.8 1.8.8 1.3-.3 1.8-.8.8-1.1.8-1.8-.3-1.3-.8-1.8-1.1-.8-1.8-.8-1.3.3-1.8.8m23.8 20.8c-1.3 1.3-2.4 2.2-3.2 2.6-.8.4-1.7.6-2.6.6-1.1 0-2-.3-2.8-.8s-1.5-1.4-2-2.5c-.5-1.2-.8-2.6-.8-4.1v-.7h13.7v-.7c0-1.1-.1-2-.3-2.7-.3-1.2-.9-2.3-1.7-3.2-.8-1-1.7-1.7-2.8-2.2-1.1-.5-2.4-.7-3.8-.7-2 0-3.7.5-5.2 1.3-1.5.9-2.7 2.1-3.5 3.7-.8 1.5-1.3 3.4-1.3 5.6 0 2.1.4 3.9 1.3 5.4s2.1 2.8 3.7 3.8c1.4.8 3.2 1.3 5.2 1.3 1.1 0 2.1-.1 3-.4.8-.3 1.7-.8 2.7-1.5.9-.7 1.9-1.6 2.8-2.8l.4-.5-2.2-1.8-.6.3m-8.5-10.7c1.2-.6 2.8-.6 3.9 0 .5.3.9.6 1.2 1.1.2.4.4.9.6 1.6h-8c.2-.6.5-1.1.8-1.5.4-.5.9-.9 1.5-1.2zm34.3-.2h.9c.9 0 1.1.2 1.2.2.1.1.2.2.2.3v.3c0 .1-.1.4-.3.9l-3.3 9.1-3.3-8.9c-.3-.8-.4-1.2-.4-1.4 0-.2.1-.3.2-.4 0 0 .2-.1 1-.1h1v-3h-9.3v3h.2c.7 0 1 .2 1.2.3.4.3.8 1 1.2 1.9l.3.7-3.1 8-3.4-9c-.3-.9-.4-1.4-.4-1.5s0-.1.2-.2c0 0 .3-.1 1.2-.1h.8v-3h-9.3v3h.2c.4 0 .7.1 1 .2.2.1.5.3.6.5.1.1.4.5.8 1.7l5.9 14.8h3.2l3.9-10 4 10h3.2l5.8-14.8c.5-1.2.7-1.5.8-1.7.1-.2.3-.3.6-.5.3-.1.6-.2 1.1-.2h.2v-3H300v2.9M190.9 75.3c-1.9-2-2.9-4.5-2.9-7.5 0-2 .5-3.8 1.3-5.4.9-1.6 2.2-2.9 3.8-3.8 1.6-.9 3.4-1.3 5.5-1.3 2.3 0 4.3.6 5.9 1.8 1.7 1.2 2.5 2.5 2.5 3.9 0 .8-.2 1.4-.7 1.9-.7.7-1.7.9-2.6.4-.3-.2-.6-.4-.9-.7-.1-.1-.3-.4-.7-1.3-.4-.9-.6-1.2-.7-1.4-.3-.4-.7-.8-1.2-1s-1-.4-1.6-.4c-1 0-1.8.3-2.7.8-.8.5-1.5 1.3-2 2.4-.5 1.1-.8 2.4-.8 4 0 2.4.6 4.3 1.8 5.6 1 1.2 2.2 1.7 3.7 1.7.7 0 1.4-.1 2.1-.3.7-.2 1.4-.6 2-1 .3-.2 1-.8 2.3-2.3l.4-.5 2.2 1.8-.4.5c-2.5 3.4-5.6 5.2-9.2 5.2-2.7 0-5.1-1.1-7.1-3.1m19.7-.1c-1.7-2.1-2.5-4.5-2.5-7.3 0-2 .4-3.9 1.3-5.5s2.1-2.9 3.7-3.7c1.6-.9 3.3-1.3 5.3-1.3s3.8.4 5.2 1.3c1.5.9 2.7 2.1 3.5 3.7.8 1.6 1.3 3.5 1.3 5.5s-.4 3.9-1.3 5.5-2.1 2.9-3.6 3.7c-1.5.9-3.3 1.3-5.4 1.3-3.2 0-5.8-1.1-7.5-3.2zm2.7-7.2c0 2.5.5 4.4 1.5 5.7.9 1.1 2 1.6 3.5 1.6 1 0 1.8-.2 2.5-.8.7-.5 1.4-1.3 1.8-2.5.5-1.2.7-2.6.7-4.2s-.3-3-.8-4.3c-.4-1-1-1.7-1.7-2.2-.8-.5-1.6-.8-2.6-.8-1.3 0-2.3.5-3.2 1.5-1.1 1.4-1.7 3.4-1.7 6zm25.6 6.9h-.8c-1.2 0-1.5-.1-1.5-.1-.2-.1-.3-.2-.4-.4 0-.1-.2-.5-.2-1.7V64c1-.9 2-1.6 3-2.1 1.9-.9 3.8-1 4.9-.3.5.3.8.6.9 1.1.1.3.3 1.1.3 2.8v7.2c0 1.3-.1 1.6-.2 1.7-.1.2-.2.3-.4.4-.1.1-.5.2-1.6.2h-.8v3h10.3v-3h-.2c-1.6 0-2-.1-2.1-.1-.2-.1-.3-.2-.4-.3 0 0-.1-.3-.1-1.7v-8.6c0-1-.1-1.8-.2-2.3-.2-.9-.6-1.7-1.2-2.4s-1.3-1.2-2.2-1.6c-1.9-.8-4.6-.8-7 .2-1 .4-2.1 1.1-3.4 2.1v-2.9h-2.2l-.2.1c-1 .6-1.8.9-2.3 1.1-.5.2-1.3.3-2.4.4l-.2.1V62h2.8v10.4c0 1.5-.1 1.9-.1 1.9-.1.3-.3.4-.4.5-.1.1-.5.2-1.7.2h-.7v3h10.4v-3.1h.3zm35.1-1.6c-.9-1.5-1.3-3.4-1.3-5.4 0-2.2.4-4 1.3-5.6.8-1.6 2-2.8 3.5-3.7s3.3-1.3 5.2-1.3c1.5 0 2.8.2 3.8.7 1.1.5 2.1 1.2 2.8 2.2.8.9 1.3 2 1.7 3.2.2.7.3 1.6.3 2.7v.7h-13.7v.7c0 1.5.3 2.9.8 4.1s1.2 2 2 2.5 1.7.8 2.8.8c.9 0 1.8-.2 2.6-.6.9-.4 1.9-1.3 3.2-2.6l.4-.4 2.2 1.8-.4.5c-1 1.2-1.9 2.1-2.8 2.8-.9.7-1.8 1.2-2.7 1.5-.8.3-1.8.4-3 .4-2 0-3.7-.4-5.2-1.3-1.4-.9-2.6-2.1-3.5-3.7zm5.2-11.1c-.3.4-.6.9-.8 1.5h8c-.2-.7-.3-1.2-.6-1.6-.3-.5-.7-.8-1.2-1.1-1.1-.6-2.6-.6-3.9 0-.6.2-1.1.7-1.5 1.2zm29.3-4.1c-1.3-1.1-3.6-1.2-6.3.2-.8.4-1.5 1-2.2 1.6v-2.6h-2.3l-.2.1c-.9.5-1.7.9-2.4 1.1-.7.2-1.5.4-2.3.4l-.2.1v2.9h2.9v10.8c0 1.1-.1 1.5-.2 1.6-.1.2-.3.4-.5.5 0 0-.2.1-1.2.1h-1.1v3h10.4v-3h-.9c-.8 0-1.2-.1-1.3-.1-.2-.1-.3-.1-.4-.3-.1-.1-.2-.3-.3-.4 0-.1-.1-.4-.1-1.4V64c.5-.6 1.2-1.2 2-1.8.6-.5 1.2-.7 1.7-.7.2 0 .7.1 1.4.6.4.3.6.4.9.5.2.1.5.1.8.1.7 0 1.3-.2 1.8-.7s.8-1.1.8-1.7c.3-.8-.1-1.6-.8-2.2zm23.7 2.7v-3h-8.1v3h1.1c.8 0 1 .1 1 .2.1.1.1.1.1.2s0 .5-.4 1.3l-3.6 9.5-3.8-9.5c-.3-.9-.4-1.2-.4-1.3s0-.2.1-.2c0-.1.1-.1.2-.1 0 0 .3-.1 1.2-.1h.8v-3h-9.3v3h.2c.4 0 .7.1.9.2.2.1.4.2.6.4.3.3.5.8.8 1.3l6.4 15.2h3.2l6.3-14.9c.5-1.2.7-1.5.8-1.6.1-.2.3-.3.6-.4.3-.1.6-.2 1.1-.2h.2zM363.1 75c-.4 0-.7-.1-1-.3-.3-.2-.5-.4-.6-.7-.1-.2-.2-.8-.2-1.9v-11h5.7v-3.3h-5.7v-6.6h-2.6l-.1.6c-.2 1.6-.6 2.8-.9 3.6-.4.7-.8 1.3-1.4 1.8s-1.4.8-2.4 1l-.5.1v2.9h3.4v11.3c0 1.6.2 2.7.5 3.4.4.7 1 1.3 1.9 1.8s1.9.7 3 .7c1.9 0 3.7-.6 5.5-1.8l.3-.2v-3.6l-1.1.8c-1.5.9-2.7 1.4-3.8 1.4zm14.5-.2l-.3-.3c-.1-.1-.1-.3-.1-.9V57.3h-2.3l-.1.1c-.9.5-1.7.8-2.4 1-.7.2-1.5.4-2.6.5l-.1.1v2.9h2.9v10.8c0 1.4-.1 1.7-.1 1.7l-.3.3s-.3.2-1.4.2h-1v3h10.3v-3H379c-1.1 0-1.4-.1-1.4-.1zm-2.8-19.5c.7 0 1.3-.3 1.8-.8s.8-1.1.8-1.8-.3-1.3-.8-1.8-1.1-.8-1.8-.8-1.3.3-1.8.8-.8 1.1-.8 1.8.3 1.3.8 1.8c.4.5 1 .8 1.8.8zm25.7 5.5v-3h-8.1v3h1.1c.8 0 1 .1 1 .2.1.1.1.1.1.2s0 .5-.4 1.3l-3.6 9.5-3.8-9.5c-.3-.9-.4-1.2-.4-1.3s0-.2.1-.2c0-.1.1-.1.2-.1 0 0 .3-.1 1.2-.1h.8v-3h-9.3v3h.2c.4 0 .7.1.9.2.2.1.4.2.6.4.3.3.5.8.8 1.3l6.4 15.2h3.2l6.3-14.9c.5-1.2.7-1.5.8-1.6.1-.2.3-.3.6-.4.3-.1.6-.2 1.1-.2h.2zm18.4 12.3l-.4.5c-1 1.2-1.9 2.1-2.8 2.8-.9.7-1.8 1.2-2.7 1.5-.8.3-1.8.4-3 .4-2 0-3.7-.4-5.2-1.3-1.6-1-2.9-2.2-3.7-3.8-.9-1.5-1.3-3.4-1.3-5.4 0-2.2.4-4 1.3-5.6.8-1.6 2-2.8 3.5-3.7s3.3-1.3 5.2-1.3c1.5 0 2.8.2 3.8.7 1.1.5 2.1 1.2 2.8 2.2.8.9 1.3 2 1.7 3.2.2.7.3 1.6.3 2.7v.7h-13.7v.7c0 1.5.3 2.9.8 4.1s1.2 2 2 2.5 1.7.8 2.8.8c.9 0 1.8-.2 2.6-.6.9-.4 1.9-1.3 3.2-2.6l.4-.4 2.4 1.9zm-12.6-10.9c-.3.4-.6.9-.8 1.5h8c-.2-.7-.3-1.2-.6-1.6-.3-.5-.7-.8-1.2-1.1-1.1-.6-2.6-.6-3.9 0-.6.2-1.1.7-1.5 1.2zm-51.9 15.5c-1.1.3-2.2.5-3.1.5-1 0-1.9-.2-2.6-.4-.7-.3-1.3-.8-1.8-1.3-.3-.3-.5-.7-.6-1.1-1.3.9-2.5 1.6-3.6 2.1-1.3.5-2.7.8-4 .8-1.9 0-3.5-.5-4.8-1.6s-1.9-2.4-1.9-3.9c0-.9.2-1.8.7-2.6.5-.8 1.2-1.5 2.1-2.1s2.2-1.1 4.1-1.5c1.7-.4 4-.8 6.9-1.1V64c0-1.2-.3-2.1-.9-2.5-.7-.5-1.7-.8-3-.8-.6 0-1.2.1-1.7.2-.4.1-.8.3-1 .6-.3.2-.4.5-.6.8 0 .1-.1.3-.4 1.6-.5 1.9-1.6 2.3-2.4 2.3-.7 0-1.3-.3-1.7-.7-.4-.5-.7-1.1-.7-1.9 0-1 .4-2 1.1-2.9s1.8-1.7 3.2-2.3c1.4-.6 3-.9 4.8-.9 1.7 0 3.2.3 4.5.8 1.3.6 2.3 1.4 2.9 2.5.4.8.7 2.1.7 4V72c0 1.3.1 1.8.1 1.9.1.4.3.7.5.8.5.4 1.5.3 2.9-.1l.4-.1v3.2h-.1zm-8.5-5.7v-3.6c-2.5.4-4.1.6-4.7.8-1.3.3-2.3.6-2.8 1-.5.3-.9.7-1.1 1s-.3.7-.3 1.1.1.7.3 1.1c.2.4.5.7 1 .9 1.1.6 2.4.4 4-.2.9-.4 2.1-1.1 3.6-2.1zm-76-3.4c-.9-1-2.4-1.8-4.6-2.6l-3.7-1.3c-1.9-.7-2.5-1.1-2.7-1.4-.3-.3-.5-.6-.5-1s.2-.8.7-1.1c.5-.4 1.2-.6 2-.6 1.1 0 2.3.4 3.4 1.2s2.1 2 2.7 3.5l.1.2 3-1-2-6.7H266l-.4.8c-.6-.4-1.2-.7-1.8-.9-.8-.3-1.8-.4-2.8-.4-2 0-3.7.6-5.1 1.7-1.4 1.1-2.1 2.5-2.1 4 0 1.2.4 2.4 1.3 3.3.8.9 2.2 1.7 4.3 2.5l4.5 1.6c1.5.5 2.1 1 2.4 1.2.3.4.5.8.5 1.2 0 .5-.3 1-.8 1.5-.6.5-1.4.7-2.3.7-1.5 0-3-.5-4.3-1.5-.9-.7-2-1.9-3.1-3.6l-3 1.2 2.6 6.8h2.3l.3-1c1.5 1 3.2 1.4 5.2 1.4 1.5 0 2.8-.3 4-.8 1.2-.6 2.1-1.4 2.7-2.3.6-1 1-2 1-3.1-.2-1.3-.7-2.5-1.5-3.5zm44.8 28.8c-1.9 0-3.5-1.6-3.5-3.5s1.6-3.5 3.5-3.5 3.5 1.6 3.5 3.5c.1 2-1.5 3.5-3.5 3.5zm-3.2-3.5c0 1.8 1.5 3.3 3.3 3.3s3.3-1.5 3.3-3.3-1.5-3.3-3.3-3.3c-1.9.1-3.3 1.5-3.3 3.3zm1.9-1.9c.3 0 .7-.1 1.2-.1 1.5 0 1.7.7 1.7 1.1 0 .5-.4.9-.8 1 .3.1.5.3.6.7.1.4.3.9.4 1.1h-.8c-.1-.1-.1-.3-.3-.9-.1-.5-.3-.6-.7-.6h-.4v1.6h-.8V92h-.1zm.7 1.7h.5c.5 0 .8-.2.8-.6s-.3-.6-.8-.6h-.5v1.2z"/></svg>