<svg xmlns="http://www.w3.org/2000/svg" viewBox="0 0 202 92"><g transform="matrix(.125 0 0 .125 1.328 .985)"><path fill="#e81b23" d="M-2.5 0h1600v720H-2.5z"/><path d="M373.6 185.16c-17.419-.084-36.573 1.207-47.062 3.494-77.591 16.921-132.65 76.442-142.89 154.47-2.066 15.74-.747 49.028 2.56 64.623 8.458 39.882 29.665 75.41 59.239 99.24 25.786 20.778 59.052 34.804 92.682 39.082 14.562 1.852 45.626 1.592 60.69-.51 15.438-2.153 32-6.178 46.19-11.227 20.336-7.234 51.288-24.812 65.932-37.445l5.312-4.584V338.75h-152.5v67.5h77.552l-.34 25.273-.338 25.273-11.498 6.032c-15.587 8.177-31.432 12.169-51.898 13.074-17.869.79-30.016-.699-43.72-5.36-37.803-12.857-62.869-45.52-68.526-89.293-5.03-38.92 10.524-79.492 39.436-102.86 9.985-8.071 27.021-16.452 38.746-19.06 13.2-2.937 41.93-2.014 56.211 1.806 16.59 4.436 30.265 11.94 54.281 29.785 1.817 1.35 5.046-2.047 25.773-27.121 13.033-15.766 23.834-29.397 24.004-30.293.17-.896-4.33-5.112-10-9.37-30.146-22.635-59.478-33.984-98.135-37.97-6.223-.642-13.782-.966-21.699-1.004zm387.03.58c-31 0-41.731 1.628-65.705 9.973-53.249 18.535-94.354 59.798-111.79 112.22-7.463 22.436-8.752 31.114-8.752 58.939 0 27.65 1.904 39.878 9.611 61.727 22.421 63.554 78.426 107.91 148.51 117.62 14.124 1.957 53.944.549 67.697-2.395 36.977-7.913 68.226-24.62 93.566-50.029 20.442-20.498 34.301-42.755 43.11-69.234 7.463-22.436 8.751-31.114 8.751-58.939 0-21.607-.393-26.762-2.904-37.977-16.23-72.487-67.822-123.08-141.91-139.16-10.918-2.37-16.516-2.752-40.186-2.752zm253.12 5.51v350h78.75V436.446l44.062-.522c42.153-.5 44.638-.662 57.346-3.748 45.962-11.159 78.119-37.887 91.318-75.898 10.444-30.077 8.896-68.71-3.883-96.895-13.5-29.44-40.2-51.95-73.4-61.71-20.9-6.16-25.6-6.43-112.6-6.43h-81.71zm-249.84 66.354c7.628.006 12.511.52 17.973 1.734 53.666 11.94 88.594 63.3 81.99 120.56-5.07 43.956-30.564 76.777-70.125 90.275-10.998 3.753-13.26 4.08-30.625 4.412-14.962.288-20.518-.1-27.5-1.914-20.516-5.332-36.134-14.464-50.367-29.447-22.23-23.403-33.016-56.954-29.133-90.623 5.07-43.96 30.596-76.819 70.125-90.264 10.538-3.584 13.802-4.099 28.996-4.578 3.276-.103 6.123-.158 8.666-.156zm328.54 3.65h33.803c46.968 0 59.423 2.898 73.274 17.045 9.599 9.804 12.228 17.4 12.268 35.455.03 13.588-.187 14.833-3.938 22.75-6.593 13.917-16.92 22.368-34.156 27.945-5.776 1.87-12.815 2.31-44.062 2.752l-37.188.525V261.254zm258.07 139.97a73.052 73.052 0 0 0-73.051 73.05 73.052 73.052 0 0 0 73.051 73.054 73.052 73.052 0 0 0 73.053-73.053 73.052 73.052 0 0 0-73.053-73.051z" fill="#fff"/><circle cy="474.27" cx="1350.6" r="65.747" fill="#e81b23"/></g><path d="M169.653 54.652c-2.622.017-4.895.607-4.894 3.496 0 .748.025.809.462.807l8.971-.01c.334.004.423-.077.422-.648-.009-2.987-1.902-3.664-4.961-3.645zm4.668 4.596c-.334.007-8.63.008-9.172.006-.27-.002-.365.071-.365.303 0 .478-.036 4.174-.015 4.776.008.236.139.306.314.308.39.005 1.362.018 1.722.01.246-.005.353-.123.365-.478.011-.333-.006-.884.005-1.377.003-.167.061-.288.231-.293a92.52 92.52 0 0 1 2.411-.006c.417.01.483.006.494.438.012.513.01.827-.005 1.223-.017.423.123.463.349.468.334.007 1.105-.011 1.491-.005.513.007.503-.15.509-.818.002-.288 0-1.29-.01-1.748-.003-.113.056-.194.133-.195.315-.005.38.817.458 1.229.288 1.524.955 1.718 1.563 1.722.762.005 1.488-.627 1.49-1.928 0-.196-.04-.365-.184-.365-.643 0-.268.01-.607 0-.18-.005-.34.02-.304.298.036.278.052.795-.298.807-.149.005-.267-.102-.267-.406s-.021-3.393-.03-3.64c-.006-.133-.011-.334-.278-.329z" fill-rule="evenodd" fill="#fff"/><path d="M168.953 55.861l.285.891-.756.557.936.004.296.892.292-.89.94-.006-.755-.552.285-.896-.76.547-.763-.547zm2.863.01l.286.891-.757.558.936.003.297.892.292-.889.94-.006-.755-.553.284-.896-.759.548-.764-.548zm-5.732 0l.286.892-.756.557.935.004.296.891.293-.888.94-.007-.755-.553.284-.895-.759.547-.764-.547z" fill-rule="evenodd" fill="#e81b23"/></svg>