<?xml version="1.0" encoding="utf-8"?>
<!-- Generator: Adobe Illustrator 22.1.0, SVG Export Plug-In . SVG Version: 6.00 Build 0)  -->
<svg version="1.1" id="Layer_1" xmlns="http://www.w3.org/2000/svg" xmlns:xlink="http://www.w3.org/1999/xlink" x="0px" y="0px"
	 viewBox="0 0 1200 602" enable-background="new 0 0 1200 602" xml:space="preserve">
<g>
	<path fill="#004BA8" d="M310.7,295.3c-3.9-5-7.4-10.4-10.4-16c-18.3,24.5-47.6,40.5-80.5,40.5c-55.4,0-100.4-45-100.4-100.2
		c0-55.3,45-100.2,100.4-100.2c35,0,65.9,18,83.9,45.2c4.7,7,8.4,14.7,11.2,22.8c3.4,10.1,5.3,20.9,5.3,32.2c0,8-1,15.8-2.7,23.3
		c0.6,2.5,1.3,4.9,2.2,7.3c2.3,6.7,5.3,13.1,9.1,19.2c7-15.2,10.9-32,10.9-49.8c0-19.9-4.9-38.6-13.4-55c-3.2-6.2-7-12.1-11.2-17.6
		c-21.9-28.5-56.3-46.9-95.1-46.9c-66.4-0.1-120,53.4-120,119.4S153.6,339,219.7,339c36.9,0,69.8-16.6,91.8-42.8
		C311.2,295.9,311,295.6,310.7,295.3z M980.3,100c-36.9,0-69.8,16.6-91.8,42.8c0.3,0.3,0.5,0.7,0.8,1c3.9,5,7.4,10.4,10.4,16
		c18.3-24.5,47.6-40.5,80.5-40.5c55.4,0,100.4,45,100.4,100.2c0,55.3-45,100.2-100.4,100.2c-35,0-65.9-18-83.9-45.2
		c-4.7-7-8.4-14.7-11.2-22.8c-3.4-10.1-5.3-20.9-5.3-32.2c0-8,1-15.8,2.7-23.2c-0.6-2.5-1.3-4.9-2.2-7.3c-2.3-6.7-5.3-13.1-9.1-19.2
		c-7,15.2-10.9,32-10.9,49.8c0,19.9,4.9,38.6,13.4,55c3.2,6.2,7,12.1,11.2,17.6c21.9,28.5,56.3,46.9,95.1,46.9
		c66.1,0,119.7-53.5,119.7-119.5S1046.4,100,980.3,100z M680.4,279.3c-18.3,24.5-47.6,40.5-80.5,40.5c-55.4,0-100.4-45-100.4-100.2
		c0-8,1-15.8,2.8-23.3c-2.4-9.5-6.2-18.4-11.2-26.5c-7,15.2-10.9,32-10.9,49.8c0,66,53.6,119.5,119.7,119.5
		c36.9,0,69.8-16.6,91.8-42.8c-0.3-0.3-0.5-0.7-0.8-1C686.9,290.2,683.4,284.9,680.4,279.3z M706.1,164.5c-3.2-6.2-7-12.1-11.2-17.6
		c-21.9-28.5-56.3-46.9-95-46.9c-36.9,0-69.8,16.6-91.8,42.8c4.2,5.3,7.9,11,11.2,17c18.3-24.6,47.6-40.5,80.6-40.5
		c35,0,65.9,18,83.9,45.2c4.7,7,8.4,14.7,11.2,22.8c3.4,10.1,5.3,20.9,5.3,32.2c0,8-1,15.8-2.7,23.3c0.6,2.5,1.3,4.9,2.2,7.3
		c2.3,6.7,5.3,13.1,9.1,19.2c7-15.2,10.9-32,10.9-49.8C719.6,199.7,714.7,181,706.1,164.5z M329.3,159.8
		c18.3-24.5,47.6-40.5,80.5-40.5c32.8,0,62,15.8,80.3,40.2l0.2-0.4l5,8l0,0c0.4,0.7,0.8,1.4,1.2,2.1c0.3,0.5,0.6,1.1,0.9,1.6
		c0.4,0.7,0.8,1.4,1.1,2.1c0.3,0.6,0.6,1.2,0.9,1.7c0.4,0.7,0.7,1.4,1,2.1c0.3,0.7,0.6,1.3,0.9,2c0.5,1.2,1,2.3,1.5,3.5
		c0.3,0.7,0.6,1.4,0.8,2.1c0.3,0.7,0.5,1.4,0.8,2.1c0.2,0.7,0.5,1.3,0.7,2s0.5,1.5,0.7,2.2s0.4,1.4,0.6,2.1c0.2,0.7,0.4,1.4,0.6,2.1
		l0.3,1.2v0.1c1.8,7.5,2.8,15.3,2.8,23.3s-1,15.8-2.8,23.3c2.4,9.5,6.2,18.4,11.2,26.5c7-15.2,10.9-32,10.9-49.8
		c0-66-53.6-119.5-119.7-119.5c-36.9,0-69.8,16.6-91.8,42.8c0.3,0.3,0.5,0.7,0.8,1C322.7,148.9,326.2,154.2,329.3,159.8z
		 M490.4,279.3c-18.3,24.6-47.6,40.5-80.6,40.5c-35,0-65.9-18-83.9-45.2c-4.7-7-8.4-14.7-11.2-22.8c-3.4-10.1-5.3-20.9-5.3-32.2
		c0-8,1-15.8,2.7-23.2c-0.6-2.5-1.3-4.9-2.2-7.3c-2.3-6.7-5.3-13.1-9.1-19.2c-7,15.2-10.9,32-10.9,49.8c0,19.9,4.9,38.6,13.4,55
		c3.2,6.2,7,12.1,11.2,17.6c21.9,28.5,56.3,46.9,95.1,46.9c36.9,0,69.8-16.6,91.8-42.8C497.4,290.9,493.7,285.3,490.4,279.3z
		 M709.4,159.8c18.3-24.5,47.6-40.5,80.5-40.5c32.8,0,62,15.8,80.3,40.2l0.2-0.4l5,8l0,0c0.4,0.7,0.8,1.4,1.2,2.1
		c0.3,0.5,0.6,1.1,0.9,1.6c0.4,0.7,0.8,1.4,1.1,2.1c0.3,0.6,0.6,1.2,0.9,1.7c0.4,0.7,0.7,1.4,1,2.1c0.3,0.7,0.6,1.3,0.9,2
		c0.5,1.2,1,2.3,1.5,3.5c0.3,0.7,0.6,1.4,0.8,2.1c0.3,0.7,0.5,1.4,0.8,2.1c0.2,0.7,0.5,1.3,0.7,2s0.5,1.5,0.7,2.2s0.4,1.4,0.6,2.1
		c0.2,0.7,0.4,1.4,0.6,2.1l0.3,1.2v0.1c1.8,7.5,2.8,15.3,2.8,23.3s-1,15.8-2.8,23.3c2.4,9.5,6.2,18.4,11.2,26.5
		c7-15.2,10.9-32,10.9-49.8c0-66-53.6-119.5-119.7-119.5c-36.9,0-69.8,16.6-91.8,42.8c0.3,0.3,0.5,0.7,0.8,1
		C702.8,148.9,706.3,154.2,709.4,159.8z M870.5,279.3c-18.3,24.6-47.6,40.5-80.6,40.5c-35,0-65.9-18-83.9-45.2
		c-4.7-7-8.4-14.7-11.2-22.8c-3.4-10.1-5.3-20.9-5.3-32.2c0-8,1-15.8,2.7-23.2c-0.6-2.5-1.3-4.9-2.2-7.3c-2.3-6.7-5.3-13.1-9.1-19.2
		c-7,15.2-10.9,32-10.9,49.8c0,19.9,4.9,38.6,13.4,55c3.2,6.2,7,12.1,11.2,17.6c21.9,28.5,56.3,46.9,95.1,46.9
		c36.9,0,69.8-16.6,91.8-42.8C877.5,290.9,873.8,285.3,870.5,279.3z M779.1,206.9H827v25.8h-47.9v17.7h52.1v28.2h-82.3V160.7h82.3
		v28h-52.1V206.9z M179.4,160.6h48.8c59.3,0.2,58.6,81.3,0.2,81.3H205v36.4h-25.5L179.4,160.6z M228.2,219c25,0,25.4-33.8,0-33.8
		h-23.3V219H228.2z M359.1,198.2c0-26.3,25.4-39.4,50.7-39.3c25.4,0,50.7,13.1,50.7,39.3V241c0,26.1-25.4,39.3-50.7,39.3
		c-25.4,0-50.7-13-50.7-39.3V198.2z M384.6,240.9c0,10,12.6,14.8,25.2,14.8c12.6-0.2,25-5,25-14.8v-42.8c0-10.1-12.6-15.1-25.2-15
		c-12.4,0-25,5.2-25,15V240.9z M626.4,160.6h31.3l-53.2,57.7l53.2,60.1h-31.8l-38.7-43.8l-4.9,4.5v39.3h-25.7V160.6h25.7v49.1
		L626.4,160.6z M970.9,235.3h-9.1v43.1h-25.9V160.6h48.8c24.8,0,43.6,10.8,44.3,37.6c0,21.6-10.3,32.1-28.2,35.4l36.9,44.7H1006
		L970.9,235.3z M984.7,213.1c11.4,0,18.5-4.3,18.5-14.6c0-10-7.7-13.5-18.5-13.1h-22.9v27.8L984.7,213.1z"/>
	<path fill="#B3B3B3" d="M269,500.3h-27l-10.9-27h-37l-10.3,27h-27.5l43.4-117.9h24.7L269,500.3z M200.7,450.9h23.8l-7.9-25.6
		l-3.9-16.8h-1.2l-3.9,17L200.7,450.9z M296,382.4h25.7v93.3h53.6v24.6H296V382.4z M403.9,382.4h25.7v93.3h53.6v24.6h-79.3
		L403.9,382.4L403.9,382.4z M537.5,500.3h-25.7V382.4h25.7V500.3z M677.1,500.3h-27l-10.9-27h-37l-10.3,27h-27.5L608,382.4h24.7
		L677.1,500.3z M608.8,450.9h23.8l-7.9-25.6l-3.9-16.8h-1.2l-3.9,17L608.8,450.9z M779.3,467.7c-1.4-7.7-3.5-22.5-3.7-25v-60.3h25.7
		v117.9h-27.5L736,438.4l-7.5-16l-1.8,0.3l3.3,20.1v57.4h-25.9V382.4h25.4l39.2,64.3l8.8,21.3L779.3,467.7z M926.3,477.4
		c-10.7,16.5-27.7,24.6-44.1,24.6c-24,0-48.7-13.2-48.7-39.1v-43c0-25.8,24.2-39.1,48.7-39.1c16.5,0,34.7,8,43.1,25.3l-20.7,10.7
		c-4.9-8.8-14.9-12.8-24.3-12.7c-11,0.2-21.2,6-21.2,15.8v43c0,9.7,9.8,15.3,20.7,15.5c9.3,0.2,19.4-3.8,24.3-12.8L926.3,477.4z
		 M980.5,429.4h53.4v23.8h-53.4v23.3h58.1v23.8h-84.1v-118h84.1v24h-58.1V429.4z"/>
</g>
</svg>
